{
	"asset":{
		"version":"2.0",
		"generator":"Maxon Cinema 4D 2025.1.2 (#200000219)"
	},
	"scenes":[{
		"nodes":[0,
		1,
		2]
	}],
	"nodes":[{
		"name":"Cube",
		"mesh":0,
		"translation":[0.002413062611594796,
		-0.0030242535285651685,
		0.18520495295524598],
		"rotation":[0.0,
		-0.13965725898742677,
		0.0,
		-0.9901999235153198],
		"scale":[1.0,
		1.0,
		1.0]
	},
	{
		"name":"Long",
		"mesh":1,
		"translation":[0.005400042049586773,
		-0.0046558137983083729,
		0.18378359079360963],
		"rotation":[0.0,
		0.0,
		0.0,
		-1.0],
		"scale":[1.0,
		1.0,
		1.0]
	},
	{
		"name":"Sides",
		"mesh":2,
		"translation":[0.005809113848954439,
		-0.0030242535285651685,
		0.18520495295524598],
		"rotation":[0.0,
		0.0,
		0.0,
		-1.0],
		"scale":[1.0,
		1.0,
		1.0]
	}],
	"meshes":[{
		"name":"Cube",
		"primitives":[{
			"attributes":{
				"POSITION":1,
				"NORMAL":2,
				"TEXCOORD_0":3
			},
			"indices":0
		}]
	},
	{
		"name":"Long",
		"primitives":[{
			"attributes":{
				"POSITION":5,
				"NORMAL":6,
				"TEXCOORD_0":7
			},
			"indices":4
		}]
	},
	{
		"name":"Sides",
		"primitives":[{
			"attributes":{
				"POSITION":9,
				"NORMAL":10,
				"TEXCOORD_0":11
			},
			"indices":8
		}]
	}],
	"accessors":[{
		"bufferView":0,
		"type":"SCALAR",
		"componentType":5123,
		"count":7800,
		"byteOffset":0,
		"min":[0],
		"max":[7799]
	},
	{
		"bufferView":1,
		"type":"VEC3",
		"componentType":5126,
		"count":7800,
		"byteOffset":0,
		"min":[-1.1167570352554322,
		-0.0012985547073185444,
		-0.5194218754768372],
		"max":[1.1167570352554322,
		0.0012985547073185444,
		0.5194218754768372]
	},
	{
		"bufferView":1,
		"type":"VEC3",
		"componentType":5126,
		"count":7800,
		"byteOffset":12,
		"min":[-1.0,
		-1.0,
		-1.0],
		"max":[1.0,
		1.0,
		1.0]
	},
	{
		"bufferView":1,
		"type":"VEC2",
		"componentType":5126,
		"count":7800,
		"byteOffset":24,
		"min":[0.0,
		0.0],
		"max":[1.0,
		1.0]
	},
	{
		"bufferView":2,
		"type":"SCALAR",
		"componentType":5123,
		"count":7260,
		"byteOffset":0,
		"min":[0],
		"max":[7259]
	},
	{
		"bufferView":3,
		"type":"VEC3",
		"componentType":5126,
		"count":7260,
		"byteOffset":0,
		"min":[-1.21864652633667,
		-0.005333005916327238,
		-0.814255952835083],
		"max":[0.9305078387260437,
		0.004666994325816631,
		-0.18690694868564607]
	},
	{
		"bufferView":3,
		"type":"VEC3",
		"componentType":5126,
		"count":7260,
		"byteOffset":12,
		"min":[-0.9609914422035217,
		-1.0,
		-0.9609914422035217],
		"max":[0.9609914422035217,
		1.0,
		0.9609914422035217]
	},
	{
		"bufferView":3,
		"type":"VEC2",
		"componentType":5126,
		"count":7260,
		"byteOffset":24,
		"min":[0.0,
		0.0],
		"max":[1.0,
		1.0]
	},
	{
		"bufferView":4,
		"type":"SCALAR",
		"componentType":5123,
		"count":14784,
		"byteOffset":0,
		"min":[0],
		"max":[14783]
	},
	{
		"bufferView":5,
		"type":"VEC3",
		"componentType":5126,
		"count":14784,
		"byteOffset":0,
		"min":[-1.2202179431915284,
		-0.0023313008714467289,
		-0.808997631072998],
		"max":[1.2202179431915284,
		0.004798554815351963,
		0.808997631072998]
	},
	{
		"bufferView":5,
		"type":"VEC3",
		"componentType":5126,
		"count":14784,
		"byteOffset":12,
		"min":[-0.9609914422035217,
		-1.0,
		-0.9609914422035217],
		"max":[0.9609914422035217,
		1.0,
		0.9609914422035217]
	},
	{
		"bufferView":5,
		"type":"VEC2",
		"componentType":5126,
		"count":14784,
		"byteOffset":24,
		"min":[0.0,
		0.0],
		"max":[1.0,
		1.0]
	}],
	"bufferViews":[{
		"buffer":0,
		"byteOffset":0,
		"byteLength":15600,
		"target":34963
	},
	{
		"buffer":0,
		"byteOffset":15600,
		"byteLength":249600,
		"byteStride":32,
		"target":34962
	},
	{
		"buffer":1,
		"byteOffset":0,
		"byteLength":14520,
		"target":34963
	},
	{
		"buffer":1,
		"byteOffset":14520,
		"byteLength":232320,
		"byteStride":32,
		"target":34962
	},
	{
		"buffer":2,
		"byteOffset":0,
		"byteLength":29568,
		"target":34963
	},
	{
		"buffer":2,
		"byteOffset":29568,
		"byteLength":473088,
		"byteStride":32,
		"target":34962
	}],
	"buffers":[{
		"uri":"data:application/octet-stream;base64,",
		"byteLength":265200
	},
	{
		"uri":"data:application/octet-stream;base64,",
		"byteLength":246840
	},
	{
		"uri":"data:application/octet-stream;base64,",
		"byteLength":502656
	}]
}